<svg xmlns="http://www.w3.org/2000/svg" viewBox="0 0 183 61">
  <g fill="none">
    <g fill="#003771" transform="translate(81 21)">
      <path d="M8.6,0.5 C10,0.5 11.4,0.8 12.6,1.4 C13.8,2 14.7,2.8 15.4,3.9 L13.7,5.1 C13.2,4.3 12.5,3.7 11.6,3.2 C10.7,2.7 9.8,2.5 8.7,2.5 C6.9,2.5 5.4,3.1 4.2,4.3 C3,5.5 2.4,7.1 2.4,9 C2.4,10.9 3,12.5 4.2,13.7 C5.4,14.9 6.9,15.5 8.7,15.5 C9.7,15.5 10.7,15.3 11.6,14.8 C12.5,14.4 13.2,13.7 13.7,12.9 L15.4,14.1 C14.7,15.1 13.8,15.9 12.6,16.5 C11.4,17.1 10.1,17.4 8.7,17.4 C7.1,17.4 5.6,17 4.3,16.3 C3,15.6 2,14.6 1.3,13.3 C0.6,12 0.2,10.6 0.2,8.9 C0.2,7.2 0.6,5.8 1.3,4.5 C2,3.2 3,2.2 4.3,1.5 C5.6,0.8 7,0.5 8.6,0.5 Z"/>
      <polygon points="36.3 15.2 36.3 17.2 24.8 17.2 24.8 .8 26.9 .8 26.9 15.3 36.3 15.3"/>
      <polygon points="56.6 15.3 56.6 17.2 44.9 17.2 44.9 .8 56.4 .8 56.4 2.7 47 2.7 47 8 56.2 8 56.2 9.9 47 9.9 47 15.3"/>
      <path d="M74 .8L80.7 17.2 78.5 17.2 76.7 12.7 68.7 12.7 66.9 17.2 64.8 17.2 71.5.8 74 .8zM72.7 2.8L69.5 10.7 75.9 10.7 72.7 2.8zM89.2.8L95.7.8C97.6.8 99 1.2 100 2 101 2.8 101.5 4 101.5 5.4 101.5 6.8 101 8 100 8.8 99 9.6 97.6 10.1 95.8 10.1L95.7 10.1 101.5 17.2 98.9 17.2 93.3 10.1 91.4 10.1 91.4 17.2 89.3 17.2 89.3.8 89.2.8zM95.7 2.7L91.3 2.7 91.3 8.2 95.7 8.2C98.1 8.2 99.3 7.3 99.3 5.4 99.3 3.6 98.1 2.7 95.7 2.7z"/>
    </g>
    <g fill="#0074EE">
      <g transform="translate(5 5)">
        <circle cx="19.1" cy="1.7" r="1.4"/>
        <circle cx="31.8" cy="1.7" r="1.4"/>
        <circle cx="42.8" cy="8.1" r="1.4"/>
        <circle cx="49.1" cy="19.1" r="1.4"/>
        <circle cx="49.1" cy="31.8" r="1.4"/>
        <circle cx="42.8" cy="42.8" r="1.4"/>
        <circle cx="31.8" cy="49.1" r="1.4"/>
        <circle cx="19.1" cy="49.1" r="1.4"/>
        <circle cx="8.1" cy="42.8" r="1.4"/>
        <circle cx="1.7" cy="31.8" r="1.4"/>
        <circle cx="1.7" cy="19.1" r="1.4"/>
        <circle cx="8.1" cy="8.1" r="1.4"/>
      </g>
      <g transform="translate(8 8)">
        <circle cx="4.3" cy="12" r="1.4"/>
        <circle cx="12" cy="4.3" r="1.4"/>
        <circle cx="22.4" cy="1.6" r="1.4"/>
        <circle cx="32.9" cy="4.4" r="1.4"/>
        <circle cx="40.5" cy="12" r="1.4"/>
        <circle cx="43.3" cy="22.4" r="1.4"/>
        <circle cx="40.5" cy="32.9" r="1.4"/>
        <circle cx="32.9" cy="40.5" r="1.4"/>
        <circle cx="22.4" cy="43.3" r="1.4"/>
        <circle cx="12" cy="40.5" r="1.4"/>
        <circle cx="4.3" cy="32.9" r="1.4"/>
        <circle cx="1.6" cy="22.4" r="1.4"/>
      </g>
      <g transform="translate(11 11)">
        <circle cx="6.8" cy="6.8" r="1.4"/>
        <circle cx="2.2" cy="14.8" r="1.4"/>
        <circle cx="2.2" cy="24" r="1.4"/>
        <circle cx="6.8" cy="32.1" r="1.4"/>
        <circle cx="14.8" cy="36.7" r="1.4"/>
        <circle cx="24" cy="36.7" r="1.4"/>
        <circle cx="32" cy="32" r="1.4"/>
        <circle cx="36.7" cy="24" r="1.4"/>
        <circle cx="36.7" cy="14.8" r="1.4"/>
        <circle cx="32.1" cy="6.8" r="1.4"/>
        <circle cx="14.8" cy="2.2" r="1.4"/>
        <circle cx="24" cy="2.2" r="1.4"/>
      </g>
      <circle cx="1.4" cy="30.4" r="1.4"/>
      <circle cx="5.3" cy="15.9" r="1.4"/>
      <circle cx="15.9" cy="5.3" r="1.4"/>
      <circle cx="30.4" cy="1.4" r="1.4"/>
      <circle cx="44.9" cy="5.3" r="1.4"/>
      <circle cx="55.5" cy="15.9" r="1.4"/>
      <circle cx="59.4" cy="30.4" r="1.4"/>
      <circle cx="55.5" cy="44.9" r="1.4"/>
      <circle cx="44.9" cy="55.5" r="1.4"/>
      <circle cx="30.4" cy="59.4" r="1.4"/>
      <circle cx="15.9" cy="55.5" r="1.4"/>
      <circle cx="5.3" cy="44.9" r="1.4"/>
    </g>
  </g>
</svg>
